<svg width="17" height="20" viewBox="0 0 17 20" fill="none" xmlns="http://www.w3.org/2000/svg">
<path fill-rule="evenodd" clip-rule="evenodd" d="M3.33337 2C2.78109 2 2.33337 2.44772 2.33337 3V17C2.33337 17.5523 2.78109 18 3.33337 18H13.3334C13.8857 18 14.3334 17.5523 14.3334 17V3C14.3334 2.44772 13.8857 2 13.3334 2H3.33337ZM0.333374 3C0.333374 1.34315 1.67652 0 3.33337 0H13.3334C14.9902 0 16.3334 1.34315 16.3334 3V17C16.3334 18.6569 14.9902 20 13.3334 20H3.33337C1.67652 20 0.333374 18.6569 0.333374 17V3Z" fill="black"/>
</svg>
